# xmcd
#
# Track frame offsets:
#	150
#	41602
#	110388
#	179984
#	235072
#	258351
#	284200
#	304028
#	335523
#
# Disc length: 4789 seconds
#
# Revision: 0
# Processed by: cddbd v1.5.2PL0 Copyright (c) Steve Scherf et al.
# Submitted via: audiograbber 1.83.01
#
DISCID=8712b309
DTITLE=Grateful Dead - 93-09-10 Richfield Coliseum, Richfield OH
DYEAR=1900
DGENRE=
TTITLE0=Corrina
TTITLE1=Uncle John's Band
TTITLE2=Drums
TTITLE3=Space
TTITLE4=The Wheel
TTITLE5=All Along The Watchtower
TTITLE6=Attics Of My Life
TTITLE7=Not Fade Away
TTITLE8=US Blues
EXTD=
EXTT0=
EXTT1=
EXTT2=
EXTT3=
EXTT4=
EXTT5=
EXTT6=
EXTT7=
EXTT8=
PLAYORDER=
